<?xml version="1.0" standalone="no"?>
<!DOCTYPE svg PUBLIC "-//W3C//DTD SVG 20010904//EN"
 "http://www.w3.org/TR/2001/REC-SVG-20010904/DTD/svg10.dtd">
<svg version="1.0" xmlns="http://www.w3.org/2000/svg"
 width="1920.000000pt" height="1440.000000pt" viewBox="0 0 1920.000000 1440.000000"
 preserveAspectRatio="xMidYMid meet">

<g transform="translate(0.000000,1440.000000) scale(0.100000,-0.100000)"
fill="#000000" stroke="none">
<path d="M0 7200 l0 -7200 9600 0 9600 0 0 165 0 165 -7549 0 -7548 0 -26 20
c-14 11 -35 45 -46 76 -21 54 -21 65 -21 1445 0 1362 0 1391 20 1447 11 31 29
65 41 75 20 16 396 17 7575 17 l7554 0 0 5495 0 5495 -9600 0 -9600 0 0 -7200z
m9901 3744 l49 -16 0 -72 c0 -78 -6 -89 -72 -130 -25 -16 -28 -16 -55 0 -67
42 -73 53 -73 126 l0 69 43 19 c53 23 49 23 108 4z m-5406 -104 l0 -105 -140
0 -140 0 -3 94 c-1 52 0 101 2 108 4 11 35 13 143 11 l138 -3 0 -105z m520 50
l-49 -50 49 -50 c27 -27 43 -50 35 -50 -8 0 -37 23 -65 50 l-50 50 50 49 c66
65 94 66 30 1z m-1537 4 c29 -33 28 -76 -2 -111 -19 -22 -32 -28 -66 -28 -34
0 -47 6 -66 28 -28 33 -31 73 -8 105 34 48 102 51 142 6z m270 25 c19 -6 36
-23 46 -43 44 -93 -81 -169 -144 -89 -35 45 -18 112 34 133 28 12 28 12 64 -1z
m14264 -6 c10 -9 18 -21 18 -26 0 -14 -31 -47 -43 -47 -6 0 -2 9 8 20 18 19
17 20 -7 20 -46 0 -76 -55 -53 -99 27 -53 95 -46 120 11 12 28 14 30 15 10 0
-29 -42 -72 -70 -72 -26 0 -61 18 -77 39 -30 40 0 112 53 125 21 6 24 9 14 21
-17 20 -1 19 22 -2z m-14857 -15 c37 -32 37 -83 1 -115 -46 -39 -103 -28 -126
27 -32 78 60 143 125 88z m1621 -1568 c15 -6 39 -23 53 -38 l26 -27 0 -440 c0
-426 -1 -441 -20 -463 -45 -52 -41 -52 -519 -52 -512 0 -503 -1 -531 78 -12
38 -15 112 -15 442 0 391 0 396 23 440 16 34 31 48 57 57 46 16 886 18 926 3z
m617 -49 c92 -40 135 -119 124 -232 -7 -82 -44 -134 -115 -166 -45 -19 -69
-23 -162 -23 l-110 0 0 220 0 220 109 0 c85 0 119 -4 154 -19z m380 -105 c56
-23 97 -89 97 -152 0 -24 -1 -24 -109 -24 -61 0 -112 -4 -116 -9 -11 -19 18
-61 50 -71 33 -11 77 -2 90 19 7 12 58 15 68 5 12 -13 -17 -52 -53 -73 -70
-39 -168 -20 -213 40 -11 16 -21 50 -24 87 -8 83 22 146 81 173 49 22 85 24
129 5z m199 -23 c6 -16 23 -61 37 -101 14 -41 30 -74 36 -74 5 0 23 40 40 89
16 48 34 94 38 101 9 14 77 17 77 3 0 -8 -79 -229 -105 -294 -6 -14 -17 -17
-54 -15 l-46 3 -38 100 c-22 55 -47 121 -58 147 -26 64 -25 68 21 68 35 0 42
-4 52 -27z m398 -493 c0 -66 3 -120 8 -120 4 0 29 25 55 55 43 49 52 55 88 55
21 0 39 -3 39 -6 0 -3 -21 -30 -47 -61 -27 -30 -47 -59 -45 -64 1 -5 25 -46
52 -90 28 -44 48 -84 45 -89 -7 -11 -45 -13 -70 -4 -9 4 -25 23 -35 43 -11 20
-28 47 -39 61 -28 36 -51 13 -51 -51 0 -44 -3 -49 -25 -55 -55 -14 -55 -13
-55 226 l0 220 40 0 40 0 0 -120z m-917 83 c8 -45 0 -52 -66 -55 l-62 -3 -5
-175 -5 -175 -35 0 -35 0 -3 178 -2 177 -65 0 -65 0 0 40 0 40 169 0 169 0 5
-27z m420 -108 c38 -25 47 -58 47 -180 0 -105 -2 -114 -20 -120 -24 -7 -60 2
-60 16 0 5 -13 3 -30 -6 -53 -27 -126 -16 -157 24 -21 28 -16 89 11 116 22 22
51 30 141 37 20 2 31 9 34 22 8 44 -73 62 -108 25 -25 -28 -78 -23 -73 6 5 26
49 73 76 79 37 8 114 -2 139 -19z m323 -2 c24 -15 54 -61 54 -83 0 -19 -63
-11 -87 12 -30 28 -81 27 -105 -4 -26 -34 -24 -105 4 -135 28 -30 83 -31 100
-3 9 14 24 20 50 20 42 0 46 -9 22 -50 -24 -39 -65 -60 -121 -60 -57 0 -104
25 -134 72 -16 27 -19 46 -17 102 4 67 5 70 47 107 23 21 52 40 64 42 35 8 96
-2 123 -20z m-679 -2 c5 -19 5 -19 36 0 49 30 67 25 67 -16 0 -28 -4 -35 -19
-35 -11 0 -33 -11 -48 -24 -26 -23 -28 -30 -33 -123 l-5 -98 -35 0 -35 0 -3
145 c-1 79 0 150 2 157 9 21 67 16 73 -6z m-813 -2814 c45 -33 6 -107 -55
-107 -66 0 -104 64 -63 104 19 20 93 21 118 3z m-525 -79 c12 -46 27 -102 33
-125 6 -24 14 -43 17 -43 4 0 20 55 37 123 l29 122 103 3 102 3 0 -231 0 -231
-67 3 -68 3 -5 142 -5 143 -23 -103 c-13 -56 -29 -120 -35 -142 l-12 -40 -66
-3 -66 -3 -17 68 c-40 153 -49 183 -55 183 -3 0 -6 -55 -6 -122 l0 -123 -62
-3 -63 -3 0 231 0 230 104 0 104 0 21 -82z m1411 64 c44 -23 70 -73 70 -133 0
-89 -78 -159 -177 -159 l-53 0 0 -75 0 -76 -72 3 -73 3 -3 228 -2 227 137 0
c115 0 144 -3 173 -18z m2030 -66 c0 -41 2 -45 28 -48 25 -3 27 -7 30 -50 3
-48 3 -48 -28 -48 l-31 0 3 -62 c3 -62 4 -63 31 -63 27 1 28 0 25 -50 l-3 -50
-57 -3 c-67 -3 -114 16 -128 54 -6 14 -10 58 -10 99 0 73 0 74 -27 77 -26 3
-28 6 -28 48 0 42 2 45 28 48 22 3 27 8 27 31 0 28 -2 27 95 56 37 12 45 5 45
-39z m-2905 -211 l0 -160 -70 0 -70 0 -3 150 c-1 82 0 155 3 163 3 9 23 12 72
10 l68 -3 0 -160z m289 155 c23 -8 26 -15 26 -56 0 -43 -1 -46 -22 -40 -100
29 -117 11 -31 -31 67 -32 86 -69 62 -119 -24 -50 -73 -74 -150 -74 -37 0 -79
4 -93 10 -23 8 -26 15 -26 55 0 25 3 45 7 45 3 0 30 -8 60 -17 48 -15 55 -15
69 -1 14 13 10 17 -33 33 -71 26 -93 50 -93 100 0 47 15 65 70 89 40 17 117
20 154 6z m833 -10 c5 -19 5 -19 33 1 15 12 38 19 51 17 21 -3 24 -9 27 -55 3
-51 2 -53 -23 -53 -28 0 -66 -16 -77 -34 -4 -6 -8 -50 -8 -98 l0 -88 -70 0
-70 0 0 158 c0 87 3 162 7 165 3 4 33 7 66 7 50 0 60 -3 64 -20z m406 1 c67
-29 98 -76 98 -147 0 -47 -4 -62 -28 -93 -42 -51 -86 -71 -161 -71 -105 0
-171 49 -188 138 -14 72 37 157 108 179 53 17 122 15 171 -6z m273 -26 c7 -22
16 -59 20 -82 3 -24 11 -43 18 -43 6 0 20 37 31 83 l20 82 54 3 c86 5 85 7 40
-120 -22 -62 -51 -144 -65 -183 -45 -128 -96 -175 -192 -175 -59 0 -72 12 -72
67 l0 43 38 -6 c29 -4 43 -2 55 11 24 24 21 43 -19 137 -70 161 -91 217 -86
223 4 3 37 4 75 3 l69 -3 14 -40z m475 31 c61 -25 83 -59 87 -131 l4 -65 -96
0 c-101 0 -123 -11 -58 -31 27 -8 49 -8 74 -1 44 12 48 9 48 -35 0 -42 -24
-53 -116 -53 -78 0 -135 25 -165 73 -16 25 -19 45 -17 94 5 75 25 108 88 141
51 25 103 28 151 8z m390 4 c14 -8 19 -21 19 -56 l0 -45 -45 7 c-60 9 -95 -13
-95 -59 0 -53 12 -62 80 -62 l60 1 0 -41 c0 -23 -5 -46 -12 -53 -20 -20 -143
-15 -188 8 -125 64 -117 232 15 291 44 20 135 25 166 9z m604 -9 c23 -10 53
-33 68 -50 23 -28 27 -42 27 -94 0 -78 -24 -121 -83 -147 -86 -39 -223 -16
-262 44 -41 62 -37 155 8 205 53 58 165 78 242 42z m369 9 c23 -8 26 -15 26
-56 0 -43 -1 -46 -22 -40 -13 4 -38 10 -57 13 -49 9 -36 -18 19 -38 50 -18 80
-51 80 -85 0 -72 -61 -114 -165 -114 -90 0 -105 9 -105 66 0 35 3 45 14 41 67
-26 97 -30 112 -15 14 14 10 17 -41 38 -63 25 -85 50 -85 95 1 38 25 70 70 89
40 17 117 20 154 6z m-2814 -868 l0 -117 -54 -3 c-47 -3 -56 0 -70 20 -25 35
-20 85 10 115 22 22 31 24 65 19 l39 -6 0 45 c0 25 2 45 5 45 3 0 5 -53 5
-118z m-1541 5 l43 -92 43 93 c24 50 49 92 54 92 7 0 11 -39 11 -110 0 -126
-18 -152 -22 -32 l-3 77 -39 -77 c-21 -43 -42 -78 -46 -78 -4 0 -22 34 -40 75
-18 41 -36 72 -41 69 -5 -3 -9 -36 -9 -75 0 -39 -4 -69 -10 -69 -6 0 -10 43
-10 110 0 81 3 110 13 110 6 0 32 -42 56 -93z m721 83 c0 -5 -4 -10 -9 -10 -6
0 -13 5 -16 10 -3 6 1 10 9 10 9 0 16 -4 16 -10z m1160 0 c0 -5 -4 -10 -10
-10 -5 0 -10 5 -10 10 0 6 5 10 10 10 6 0 10 -4 10 -10z m240 0 c0 -5 -4 -10
-10 -10 -5 0 -10 5 -10 10 0 6 5 10 10 10 6 0 10 -4 10 -10z m200 -35 c0 -7
10 -16 23 -18 l22 -4 -22 -8 c-20 -6 -23 -14 -23 -66 0 -52 3 -61 23 -69 20
-9 19 -9 -8 -7 -30 2 -30 3 -33 67 -2 35 -8 68 -15 73 -9 7 -9 10 1 14 6 2 12
14 12 24 0 11 5 17 10 14 6 -3 10 -12 10 -20z m471 -15 c10 0 19 -4 19 -10 0
-5 -9 -10 -20 -10 -18 0 -20 -7 -20 -60 0 -54 3 -62 23 -70 21 -9 21 -9 -4 -9
-31 -1 -39 18 -39 90 0 25 -5 50 -12 57 -9 9 -9 12 -1 12 7 0 15 10 19 23 l8
22 4 -22 c2 -15 10 -23 23 -23z m1385 15 c4 -8 12 -15 20 -15 8 0 14 -4 14
-10 0 -5 -7 -10 -15 -10 -12 0 -15 -14 -15 -64 0 -53 3 -65 18 -69 13 -4 12
-5 -5 -6 -29 -1 -43 26 -43 86 0 27 -5 54 -12 61 -9 9 -9 12 0 12 7 0 12 7 12
15 0 8 5 15 10 15 6 0 13 -7 16 -15z m-3869 -45 c7 -14 13 -48 13 -75 l0 -51
-51 -2 c-55 -2 -79 9 -79 38 0 25 23 41 70 47 22 3 40 11 40 18 0 23 -29 38
-60 31 -29 -5 -42 7 -17 18 30 12 72 1 84 -24z m167 8 c18 -25 22 -138 6 -138
-6 0 -10 26 -10 58 0 60 -11 82 -41 82 -33 0 -49 -29 -49 -86 0 -30 -4 -54
-10 -54 -6 0 -10 32 -10 76 0 60 3 75 13 71 8 -3 20 -1 28 4 25 15 57 10 73
-13z m168 5 c10 -9 18 -26 18 -39 0 -21 -5 -23 -57 -26 -52 -3 -58 -5 -55 -23
5 -33 32 -47 77 -40 29 5 36 3 25 -4 -18 -13 -80 -14 -98 -3 -20 13 -32 70
-21 99 19 51 75 69 111 36z m220 0 c14 -12 18 -31 18 -78 l0 -63 -57 2 c-52 1
-58 3 -61 24 -5 32 14 51 59 58 39 7 46 17 30 43 -6 10 -20 12 -47 7 -36 -6
-38 -5 -20 9 26 20 55 19 78 -2z m173 -46 c10 -28 21 -56 25 -60 6 -7 24 27
51 98 6 17 13 25 16 18 7 -19 -77 -222 -96 -233 -25 -13 -35 0 -12 16 30 22
33 58 10 121 -28 77 -35 108 -21 99 6 -3 18 -30 27 -59z m306 53 c16 -9 19
-22 19 -79 l0 -68 -42 -1 c-59 -3 -78 5 -78 32 0 30 19 45 65 53 30 5 35 10
33 27 -2 17 -10 21 -40 20 -37 -1 -51 9 -25 19 21 9 47 7 68 -3z m346 -1 c8
-8 21 -7 47 2 58 21 71 7 72 -82 l1 -74 -6 62 c-6 67 -18 87 -47 81 -25 -5
-44 -45 -44 -95 0 -70 -19 -49 -22 25 -3 62 -5 67 -27 70 -34 5 -45 -12 -52
-81 l-6 -62 -1 78 c-1 43 2 76 6 73 4 -2 14 -1 22 5 20 12 44 11 57 -2z m345
-6 c14 -12 18 -31 18 -80 0 -84 -18 -81 -22 5 -3 64 -4 67 -30 70 -36 4 -58
-30 -58 -90 0 -27 -4 -48 -10 -48 -6 0 -10 32 -10 76 0 71 1 76 20 71 11 -3
23 -1 26 4 9 15 46 10 66 -8z m213 8 c3 -5 -9 -11 -27 -13 -46 -4 -48 -30 -3
-57 30 -17 36 -26 33 -49 -3 -24 -7 -27 -45 -30 -24 -2 -43 1 -43 6 0 6 14 9
32 8 47 -2 49 28 4 55 -38 22 -47 54 -24 77 14 14 64 16 73 3z m215 -1 c0 -5
-7 -10 -15 -10 -22 0 -35 -33 -35 -89 0 -28 -4 -51 -10 -51 -6 0 -10 32 -10
76 0 63 3 75 15 71 8 -4 17 -2 20 3 8 13 35 13 35 0z m131 0 c16 -9 19 -22 19
-78 l0 -68 -57 0 c-55 1 -58 2 -61 27 -4 32 14 48 66 57 36 6 39 9 31 31 -8
21 -13 23 -52 17 -39 -5 -40 -5 -23 9 23 18 50 19 77 5z m269 -59 c0 -77 29
-103 72 -64 13 12 18 31 18 75 0 37 4 57 10 53 6 -3 10 -39 10 -78 l0 -73 -51
-2 c-29 -1 -58 3 -65 9 -17 14 -20 154 -4 144 6 -3 10 -32 10 -64z m230 60 c0
-5 -12 -11 -27 -13 -41 -5 -40 -32 2 -56 36 -22 45 -48 23 -70 -14 -14 -74
-16 -83 -2 -3 6 9 9 32 7 51 -3 56 23 10 52 -43 27 -52 48 -31 72 17 19 74 26
74 10z m265 -11 c24 -26 24 -79 1 -114 -15 -24 -23 -27 -64 -24 l-47 2 -6 -44
c-4 -29 -7 -2 -7 74 -2 95 1 117 11 113 8 -3 20 -1 28 4 24 15 65 10 84 -11z
m125 10 c0 -5 -7 -10 -15 -10 -22 0 -35 -33 -35 -89 0 -28 -4 -51 -10 -51 -6
0 -10 31 -10 74 0 69 2 75 23 79 39 8 47 7 47 -3z m150 -9 c19 -15 25 -29 25
-59 0 -54 -26 -82 -77 -82 -49 0 -78 28 -78 75 0 71 74 108 130 66z m90 -68
c11 -34 16 -41 27 -32 7 6 13 17 13 23 1 20 40 99 47 93 11 -11 -81 -228 -100
-239 -27 -14 -35 0 -10 17 33 23 35 57 8 129 -27 73 -34 119 -11 76 8 -14 20
-44 26 -67z m223 75 c9 -7 19 -25 23 -40 l6 -28 -56 0 c-64 0 -81 -17 -51 -50
20 -22 46 -25 77 -9 16 9 19 8 16 -3 -3 -8 -23 -14 -50 -16 -39 -3 -49 1 -62
20 -50 71 31 176 97 126z m167 -1 c0 -9 -9 -12 -29 -9 -59 8 -93 -66 -50 -109
16 -16 29 -20 50 -15 16 3 29 1 29 -4 0 -12 -70 -13 -86 -2 -16 10 -34 48 -34
71 0 11 12 33 26 50 19 24 34 31 60 31 22 0 34 -5 34 -13z m251 -6 c32 -26 34
-105 5 -127 -31 -22 -92 -18 -116 8 -67 72 35 181 111 119z m144 10 c3 -5 -9
-11 -27 -13 -46 -4 -48 -30 -3 -57 30 -17 36 -26 33 -49 -3 -24 -7 -27 -45
-30 -24 -2 -43 1 -43 6 0 6 15 9 33 8 25 -1 33 3 35 19 2 15 -7 25 -33 38 -37
18 -47 51 -23 75 14 14 64 16 73 3z m-3785 -85 c0 -47 -4 -96 -10 -110 -12
-33 -55 -55 -72 -38 -9 9 -6 12 15 12 37 0 47 29 47 136 0 49 4 84 10 84 6 0
10 -35 10 -84z m1160 9 c0 -43 -4 -75 -10 -75 -6 0 -10 32 -10 75 0 43 4 75
10 75 6 0 10 -32 10 -75z m240 0 c0 -43 -4 -75 -10 -75 -6 0 -10 32 -10 75 0
43 4 75 10 75 6 0 10 -32 10 -75z m-1563 -588 l32 -52 1 53 c0 51 0 52 30 52
l31 0 -3 -97 c-3 -98 -3 -98 -29 -101 -23 -3 -32 5 -60 49 l-34 52 -5 -49 c-5
-44 -7 -49 -30 -49 -25 0 -25 1 -28 98 l-3 97 33 0 c29 -1 37 -7 65 -53z m945
36 c41 -37 6 -113 -52 -113 -28 0 -30 -3 -30 -36 0 -33 -2 -35 -27 -32 -28 3
-28 4 -31 87 -2 46 -1 90 2 98 8 20 114 17 138 -4z m788 -17 c5 -13 15 -26 22
-29 10 -4 9 -9 -4 -20 -23 -18 -23 -66 -1 -82 22 -16 8 -35 -26 -35 -38 0 -51
17 -51 65 0 42 0 42 -37 41 -43 -2 -64 -26 -44 -50 7 -8 23 -14 34 -13 16 1
22 -4 22 -18 0 -16 -8 -21 -42 -23 -37 -3 -44 1 -64 27 -19 26 -29 31 -66 31
-29 0 -42 -4 -37 -11 4 -7 20 -8 41 -4 32 6 34 4 31 -17 -3 -20 -10 -23 -49
-26 -41 -3 -50 1 -68 24 -11 15 -21 36 -22 48 0 11 -8 -2 -18 -31 -28 -82 -46
-103 -86 -103 -42 0 -44 7 -9 35 24 19 25 21 10 50 -9 17 -16 36 -16 43 0 7
-7 26 -15 42 -14 27 -14 29 5 35 25 8 39 -1 50 -31 11 -29 30 -32 30 -4 0 21
34 45 50 35 6 -3 10 -14 10 -23 0 -12 3 -13 8 -5 4 6 20 16 34 22 33 12 88 -4
88 -25 0 -18 19 -18 26 1 8 19 68 38 94 30 15 -5 28 1 45 19 30 32 43 33 55 2z
m-1576 -22 c12 -4 16 -20 16 -55 0 -27 5 -49 10 -49 6 0 10 22 10 49 0 38 4
50 18 53 35 10 42 -2 42 -73 l0 -69 -58 0 c-32 0 -63 5 -70 12 -7 7 -12 37
-12 68 0 69 6 78 44 64z m238 -13 c4 -3 11 -21 14 -39 l7 -32 -49 0 c-36 0
-45 -3 -34 -10 8 -6 28 -7 43 -4 26 5 28 3 25 -18 -3 -20 -9 -23 -49 -26 -41
-3 -50 1 -68 24 -24 31 -26 43 -10 78 18 39 92 56 121 27z m64 11 c6 -4 15
-20 19 -37 l8 -30 10 32 c9 31 30 44 54 36 15 -5 9 -39 -19 -101 -16 -37 -23
-43 -45 -40 -21 2 -31 14 -51 60 -13 32 -22 64 -18 73 6 16 24 19 42 7z m211
-3 c35 -13 43 -25 43 -71 0 -44 -27 -68 -79 -68 -49 0 -71 24 -71 77 0 40 3
45 33 58 39 17 39 17 74 4z m411 -7 c2 -6 16 -3 33 5 81 41 158 -49 97 -114
-45 -48 -138 -16 -138 49 0 53 -36 26 -42 -32 -3 -30 -7 -35 -28 -35 -24 0
-25 3 -28 64 -2 40 1 67 8 71 16 10 94 3 98 -8z m824 -9 c45 -41 5 -123 -61
-123 -88 0 -113 111 -31 143 23 9 72 -1 92 -20z"/>
<path d="M9850 10839 c0 -60 3 -109 8 -109 4 0 24 14 45 31 35 29 37 33 37 92
l0 62 -45 16 -45 17 0 -109z"/>
<path d="M4224 10927 c-3 -8 -4 -52 -2 -98 l3 -84 38 -3 37 -3 0 100 0 101
-35 0 c-21 0 -38 -6 -41 -13z m53 -33 c-3 -3 -12 -4 -19 -1 -8 3 -5 6 6 6 11
1 17 -2 13 -5z m0 -30 c-3 -3 -12 -4 -19 -1 -8 3 -5 6 6 6 11 1 17 -2 13 -5z"/>
<path d="M4320 10840 l0 -101 83 3 82 3 0 95 0 95 -82 3 -83 3 0 -101z"/>
<path d="M3878 9266 c-12 -6 -26 -26 -30 -44 -5 -19 -8 -211 -6 -426 2 -315 6
-396 17 -409 12 -15 57 -17 456 -17 415 0 443 1 458 18 15 17 17 61 17 434 0
409 0 415 -21 434 -20 18 -43 19 -445 20 -286 0 -431 -3 -446 -10z m820 -165
c2 -13 0 -26 -5 -30 -16 -12 -73 -90 -73 -100 0 -6 -4 -11 -8 -11 -4 0 -26
-24 -47 -52 -22 -29 -60 -78 -85 -109 -25 -31 -54 -69 -65 -84 -68 -95 -93
-119 -117 -110 -13 6 -78 89 -78 100 0 7 -47 72 -68 94 -17 18 -11 65 8 69 9
1 43 -24 75 -58 33 -33 63 -60 67 -60 10 0 63 54 217 223 144 159 172 179 179
128z m-590 -63 c21 -21 14 -33 -59 -108 l-71 -73 71 -71 c39 -39 71 -77 71
-84 0 -6 -12 -15 -26 -18 -24 -6 -36 2 -105 73 -44 44 -79 89 -79 100 0 17
163 193 179 193 4 0 12 -5 19 -12z"/>
<path d="M5220 9080 l0 -150 48 0 c101 1 162 56 162 150 0 94 -61 149 -162
150 l-48 0 0 -150z"/>
<path d="M5661 9094 c-11 -15 -18 -30 -15 -35 3 -5 34 -9 70 -9 57 0 64 2 64
19 0 53 -83 71 -119 25z"/>
<path d="M5736 8457 c-11 -8 -17 -23 -14 -38 2 -20 9 -25 41 -27 45 -4 77 19
77 55 0 21 -5 23 -43 23 -24 0 -51 -6 -61 -13z"/>
<path d="M5437 5723 c-4 -3 -7 -30 -7 -60 0 -49 2 -53 24 -53 31 0 56 24 56
53 0 28 -9 41 -37 56 -25 13 -27 13 -36 4z"/>
<path d="M6122 5578 c-7 -7 -12 -30 -12 -53 0 -44 13 -65 41 -65 28 0 49 28
49 65 0 53 -47 84 -78 53z"/>
<path d="M6897 5593 c-4 -3 -7 -15 -7 -25 0 -14 8 -18 35 -18 38 0 40 2 25 31
-10 19 -40 26 -53 12z"/>
<path d="M7868 5579 c-21 -12 -25 -88 -6 -107 18 -18 56 -14 68 7 15 29 12 77
-6 95 -18 18 -32 20 -56 5z"/>
<path d="M5436 4814 c-33 -33 -11 -114 30 -114 50 0 79 61 50 105 -19 29 -57
33 -80 9z"/>
<path d="M4226 4747 c-23 -17 -11 -47 19 -47 23 0 55 28 55 48 0 16 -52 15
-74 -1z"/>
<path d="M4562 4818 c-25 -25 -13 -38 33 -38 30 0 45 4 45 13 0 19 -21 37 -45
37 -12 0 -26 -5 -33 -12z"/>
<path d="M4818 4757 c-27 -6 -38 -14 -38 -27 0 -42 65 -37 76 6 8 32 7 33 -38
21z"/>
<path d="M5275 4746 c-21 -15 -14 -46 10 -46 28 0 55 20 55 40 0 24 -36 27
-65 6z"/>
<path d="M6548 4757 c-28 -6 -38 -14 -38 -28 0 -41 72 -32 83 10 7 27 0 30
-45 18z"/>
<path d="M7273 4822 c-20 -13 -31 -55 -21 -82 15 -42 53 -53 82 -24 19 18 21
85 4 102 -13 13 -47 16 -65 4z"/>
<path d="M7537 4812 c-35 -38 -6 -112 43 -112 27 0 60 35 60 63 0 58 -67 89
-103 49z"/>
<path d="M7866 4814 c-26 -26 -18 -34 34 -34 34 0 50 4 50 13 0 35 -56 50 -84
21z"/>
<path d="M8266 4808 c-22 -31 -20 -64 4 -88 41 -41 100 -13 100 47 0 58 -73
86 -104 41z"/>
<path d="M5420 4166 c0 -31 14 -40 30 -21 15 18 6 45 -15 45 -9 0 -15 -9 -15
-24z"/>
<path d="M5995 4130 c-3 -5 1 -10 9 -10 9 0 16 5 16 10 0 6 -4 10 -9 10 -6 0
-13 -4 -16 -10z"/>
<path d="M4890 4130 c-12 -8 -10 -10 8 -10 13 0 20 4 17 10 -7 12 -6 12 -25 0z"/>
<path d="M5187 4134 c-4 -4 -7 -20 -7 -36 0 -32 25 -39 33 -8 5 21 -14 55 -26
44z"/>
<path d="M5694 4126 c-9 -23 0 -51 16 -51 10 0 15 10 15 29 0 32 -21 47 -31
22z"/>
<path d="M6384 4126 c-9 -23 0 -51 16 -51 10 0 15 10 15 29 0 32 -21 47 -31
22z"/>
<path d="M4337 2854 c-40 -21 -47 -50 -47 -179 0 -106 2 -116 24 -142 l24 -28
641 -3 640 -2 33 29 33 29 3 114 c3 100 0 117 -18 146 -11 18 -32 37 -46 42
-15 6 -265 10 -642 10 -532 -1 -621 -3 -645 -16z m1304 -30 c22 -23 24 -35 27
-133 4 -104 3 -108 -23 -139 l-27 -32 -633 0 -634 0 -20 26 c-18 24 -21 41
-21 141 0 108 1 115 25 138 l24 25 629 0 629 0 24 -26z"/>
<path d="M4602 2673 c1 -44 2 -49 5 -20 5 45 24 45 37 -1 5 -18 12 -32 15 -32
4 0 14 19 23 43 l17 42 0 -42 c1 -24 6 -43 11 -43 6 0 10 25 10 55 0 43 -3 55
-15 55 -9 0 -18 -8 -21 -17 -3 -10 -11 -29 -17 -41 -11 -23 -12 -23 -25 17
-21 63 -42 54 -40 -16z"/>
<path d="M4766 2683 c-19 -54 -19 -63 -6 -63 6 0 10 9 10 20 0 27 36 26 50 -1
20 -37 22 -12 3 40 -10 28 -23 51 -29 51 -7 0 -19 -21 -28 -47z m42 -1 c2 -7
-3 -12 -12 -12 -9 0 -16 7 -16 16 0 17 22 14 28 -4z"/>
<path d="M4870 2675 c0 -30 5 -55 10 -55 6 0 10 16 10 35 0 19 3 35 8 35 4 0
16 -16 26 -35 11 -19 23 -35 28 -35 4 0 7 26 6 58 -1 42 -2 47 -5 20 -2 -21
-7 -38 -11 -38 -4 0 -16 16 -26 35 -29 53 -46 46 -46 -20z"/>
<path d="M5010 2684 c-11 -26 -20 -50 -20 -55 0 -17 18 -9 23 11 7 27 41 25
55 -2 8 -18 11 -19 11 -6 1 24 -29 98 -40 98 -4 0 -17 -21 -29 -46z m40 -6 c0
-5 -7 -8 -15 -8 -17 0 -18 2 -9 25 5 13 8 14 15 3 5 -7 9 -16 9 -20z"/>
<path d="M5230 2675 c0 -54 1 -55 28 -54 23 2 24 2 5 6 -14 3 -23 12 -23 23 0
11 9 20 23 23 22 4 22 4 -2 6 -19 1 -23 5 -19 26 3 14 1 25 -3 25 -5 0 -9 -25
-9 -55z"/>
<path d="M5310 2675 c0 -30 5 -55 10 -55 6 0 10 12 10 26 0 31 20 28 35 -4 9
-21 25 -30 25 -14 0 16 -32 52 -47 52 -11 0 -14 7 -11 25 4 17 1 25 -8 25 -10
0 -14 -15 -14 -55z"/>
<path d="M5367 2710 c3 -11 9 -17 14 -15 10 7 1 35 -11 35 -5 0 -6 -9 -3 -20z"/>
<path d="M5117 2713 c-12 -11 -8 -68 5 -81 7 -7 25 -12 40 -12 24 0 28 4 28
30 0 25 -4 30 -22 29 -17 -1 -19 -2 -5 -6 28 -7 22 -43 -8 -43 -27 0 -42 33
-32 70 5 21 4 24 -6 13z"/>
<path d="M5800 2024 l0 -155 28 3 27 3 3 153 3 152 -31 0 -30 0 0 -156z"/>
<path d="M5912 2028 l3 -153 28 -3 27 -3 0 155 0 156 -30 0 -31 0 3 -152z"/>
<path d="M6520 2120 c0 -55 -10 -75 -25 -50 -11 18 -53 11 -83 -15 -68 -57
-35 -185 48 -185 14 0 31 5 38 12 9 9 15 9 24 0 7 -7 22 -12 35 -12 l23 0 0
155 0 155 -30 0 -30 0 0 -60z m-2 -142 c2 -29 -1 -39 -17 -48 -29 -15 -61 3
-61 35 0 44 10 56 44 53 28 -3 31 -7 34 -40z"/>
<path d="M4320 2015 l0 -145 65 0 c115 0 185 56 185 148 0 95 -59 142 -180
142 l-70 0 0 -145z m157 63 c30 -28 31 -85 2 -122 -16 -20 -29 -26 -60 -26
l-39 0 0 85 0 85 37 0 c24 0 45 -8 60 -22z"/>
<path d="M6950 2130 c0 -28 2 -30 40 -30 l40 0 0 -115 0 -115 30 0 30 0 0 115
0 115 39 0 c31 0 41 4 46 20 3 11 3 24 0 30 -4 6 -53 10 -116 10 l-109 0 0
-30z"/>
<path d="M7214 2147 c-2 -7 -3 -71 -2 -143 l3 -129 28 -3 c27 -3 27 -2 27 52
l0 55 48 3 c43 3 47 5 47 28 0 23 -4 25 -47 28 -46 3 -48 5 -48 33 0 28 1 29
49 29 41 0 51 4 56 20 3 11 3 24 0 30 -10 15 -155 13 -161 -3z"/>
<path d="M7490 2141 c-19 -11 -43 -28 -53 -39 -22 -24 -32 -86 -23 -136 14
-74 125 -118 209 -82 l38 15 -3 68 -3 68 -55 0 c-53 0 -55 -1 -58 -27 -3 -24
0 -28 22 -28 21 0 26 -5 26 -25 0 -22 -4 -25 -35 -25 -76 0 -107 95 -48 148
22 20 35 23 82 20 52 -3 56 -1 59 19 6 43 -93 58 -158 24z"/>
<path d="M4643 2060 c-87 -53 -45 -190 58 -190 52 0 69 9 69 34 0 19 -4 21
-40 18 -25 -3 -47 1 -57 9 -14 12 -8 15 48 19 64 5 64 5 67 38 3 26 -3 39 -28
62 -38 35 -72 38 -117 10z m85 -47 c2 -9 -8 -13 -32 -13 -20 0 -36 4 -36 9 0
22 60 25 68 4z"/>
<path d="M4849 2065 c-53 -29 -42 -84 22 -109 37 -15 40 -19 27 -32 -11 -12
-21 -13 -42 -4 -31 11 -46 6 -46 -15 0 -20 32 -35 73 -35 61 0 106 55 79 97
-4 7 -25 19 -45 28 -45 19 -39 39 9 33 30 -3 34 -1 34 18 0 36 -61 46 -111 19z"/>
<path d="M5038 2068 c-18 -6 -28 -17 -28 -29 0 -18 5 -19 51 -13 66 9 65 -14
-1 -30 -31 -8 -49 -19 -59 -38 -31 -54 28 -108 85 -77 21 11 27 11 33 0 5 -7
19 -11 32 -9 22 3 24 8 27 76 3 69 1 74 -27 102 -31 32 -63 37 -113 18z m75
-104 c11 -12 -13 -44 -33 -44 -27 0 -36 21 -15 37 20 14 38 17 48 7z"/>
<path d="M5230 1974 l0 -105 28 3 c25 3 27 6 32 63 6 71 13 85 46 85 19 0 24
5 24 24 0 33 -16 41 -45 22 -20 -13 -24 -13 -29 -1 -3 8 -17 15 -31 15 l-25 0
0 -106z"/>
<path d="M5397 2073 c-4 -3 -7 -51 -7 -105 l0 -98 30 0 c29 0 30 1 30 49 0 70
13 99 47 103 20 2 29 9 31 24 4 28 -24 39 -53 20 -20 -13 -24 -13 -29 -1 -5
15 -37 20 -49 8z"/>
<path d="M5583 2060 c-36 -21 -46 -48 -41 -106 8 -99 164 -113 204 -17 41 96
-70 180 -163 123z m105 -82 c2 -28 -1 -39 -16 -47 -43 -23 -81 13 -68 65 6 22
11 25 44 22 35 -3 37 -5 40 -40z"/>
<path d="M6068 2064 c-65 -35 -73 -121 -17 -168 49 -42 123 -32 167 22 15 19
16 86 2 113 -24 44 -101 61 -152 33z m98 -68 c8 -35 -3 -63 -28 -69 -35 -9
-58 10 -58 47 0 41 5 46 46 46 27 0 35 -5 40 -24z"/>
<path d="M6674 2061 c-91 -56 -52 -191 56 -191 39 0 70 16 70 35 0 11 -11 15
-39 15 -44 0 -71 8 -71 21 0 5 27 9 59 9 33 0 63 5 66 11 15 24 -6 80 -38 99
-40 25 -64 25 -103 1z m84 -48 c2 -9 -8 -13 -32 -13 -20 0 -36 4 -36 9 0 22
60 25 68 4z"/>
<path d="M4460 1496 c0 -57 4 -96 10 -96 6 0 10 36 10 89 0 50 -4 93 -10 96
-6 4 -10 -28 -10 -89z"/>
<path d="M4345 1568 c-33 -18 -45 -40 -45 -83 0 -54 31 -85 83 -85 20 0 37 4
37 10 0 5 -13 7 -30 3 -44 -8 -70 18 -70 72 0 50 23 75 69 75 19 0 30 4 26 10
-8 13 -45 12 -70 -2z"/>
<path d="M5370 1554 c-55 -141 -59 -154 -46 -154 8 0 17 11 20 25 5 21 12 25
41 25 28 0 38 -5 47 -25 18 -39 58 -34 84 11 l21 37 22 -37 c13 -20 27 -36 32
-36 13 0 11 7 -15 49 l-24 38 24 42 c29 47 16 56 -17 10 l-21 -30 -20 33 c-27
44 -27 43 -40 30 -8 -8 -8 -12 -2 -12 6 0 19 -17 28 -39 18 -38 17 -39 -6 -75
-12 -19 -26 -36 -29 -36 -3 0 -18 33 -34 73 -15 39 -34 78 -41 86 -11 12 -15
10 -24 -15z m23 -82 c-33 -5 -34 -2 -21 42 l12 39 17 -39 c16 -39 16 -39 -8
-42z"/>
<path d="M4510 1560 c0 -5 7 -10 15 -10 8 0 15 5 15 10 0 6 -7 10 -15 10 -8 0
-15 -4 -15 -10z"/>
<path d="M5170 1502 c0 -54 4 -72 18 -85 19 -18 59 -22 79 -9 32 20 48 162 18
162 -11 0 -15 -17 -17 -71 -2 -55 -7 -74 -20 -83 -13 -8 -23 -8 -35 0 -14 9
-19 28 -21 83 -4 91 -22 93 -22 3z"/>
<path d="M4851 1547 c-1 -10 -8 -20 -17 -24 -15 -5 -15 -7 0 -15 11 -6 16 -23
16 -58 0 -45 2 -50 22 -50 20 0 20 1 5 18 -23 25 -22 78 1 91 10 6 12 11 4 11
-7 0 -17 10 -22 23 -7 17 -9 18 -9 4z"/>
<path d="M4510 1459 c0 -81 24 -77 28 4 2 46 0 57 -13 57 -12 0 -15 -13 -15
-61z"/>
<path d="M4580 1504 c-8 -8 -13 -28 -13 -44 0 -16 5 -36 13 -44 13 -17 65 -22
74 -7 3 4 -5 6 -17 4 -14 -3 -30 3 -41 16 -19 21 -19 21 23 21 46 0 59 16 41
49 -13 25 -61 28 -80 5z m58 -6 c20 -20 14 -28 -25 -28 -35 0 -36 0 -18 20 21
23 27 24 43 8z"/>
<path d="M4700 1458 c0 -69 18 -78 22 -12 2 32 9 51 21 58 24 15 37 -6 37 -61
0 -24 5 -43 10 -43 15 0 12 96 -3 109 -8 6 -30 10 -50 9 l-37 -1 0 -59z"/>
<path d="M4924 1495 c-11 -17 -14 -34 -9 -52 8 -34 21 -43 60 -41 27 1 28 1 5
5 -58 11 -66 43 -11 43 48 0 58 13 37 45 -22 33 -60 33 -82 0z m66 -5 c10 -18
8 -20 -25 -20 -33 0 -35 2 -25 20 6 11 17 20 25 20 8 0 19 -9 25 -20z"/>
<path d="M5042 1509 c2 -6 8 -10 13 -10 5 0 11 4 13 10 2 6 -4 11 -13 11 -9 0
-15 -5 -13 -11z"/>
<path d="M5046 1423 c-11 -11 -6 -23 9 -23 8 0 15 4 15 9 0 13 -16 22 -24 14z"/>
<path d="M5130 1100 c0 -5 5 -10 10 -10 6 0 10 5 10 10 0 6 -4 10 -10 10 -5 0
-10 -4 -10 -10z"/>
<path d="M5720 1035 c0 -43 4 -75 10 -75 6 0 10 32 10 75 0 43 -4 75 -10 75
-6 0 -10 -32 -10 -75z"/>
<path d="M5780 1100 c0 -5 5 -10 10 -10 6 0 10 5 10 10 0 6 -4 10 -10 10 -5 0
-10 -4 -10 -10z"/>
<path d="M6293 1035 c0 -44 2 -61 4 -37 2 23 2 59 0 80 -2 20 -4 1 -4 -43z"/>
<path d="M7380 1081 c0 -25 -3 -28 -25 -23 -34 6 -55 -14 -55 -54 0 -38 33
-65 53 -45 8 8 5 11 -11 11 -27 0 -37 20 -28 55 5 18 13 25 31 25 27 0 39 -25
29 -64 -4 -16 -2 -26 5 -26 7 0 11 27 11 75 0 41 -2 75 -5 75 -3 0 -5 -13 -5
-29z"/>
<path d="M7617 1103 c-4 -3 -7 -14 -7 -24 0 -9 -6 -20 -12 -22 -10 -4 -10 -6
0 -6 7 -1 13 -19 14 -48 1 -47 1 -47 5 -8 2 22 11 45 19 51 13 10 13 12 -1 18
-21 7 -19 33 3 39 14 4 14 5 1 6 -9 0 -19 -2 -22 -6z"/>
<path d="M7670 1100 c0 -5 5 -10 10 -10 6 0 10 5 10 10 0 6 -4 10 -10 10 -5 0
-10 -4 -10 -10z"/>
<path d="M7980 1085 c0 -21 -5 -25 -30 -25 -47 0 -68 -61 -32 -93 21 -19 42
-22 42 -7 0 6 -9 10 -19 10 -24 0 -36 32 -21 60 25 46 70 9 56 -46 -4 -14 -2
-24 4 -24 6 0 10 31 10 75 0 41 -2 75 -5 75 -3 0 -5 -11 -5 -25z"/>
<path d="M8590 1085 c0 -21 -5 -25 -30 -25 -19 0 -33 -7 -40 -21 -7 -11 -9
-23 -7 -26 3 -2 10 5 17 16 25 47 70 11 56 -45 -5 -17 -2 -24 9 -24 12 0 15
15 15 75 0 43 -4 75 -10 75 -5 0 -10 -11 -10 -25z"/>
<path d="M9420 1035 c0 -43 4 -75 10 -75 6 0 10 32 10 75 0 43 -4 75 -10 75
-6 0 -10 -32 -10 -75z"/>
<path d="M10370 1100 c0 -5 5 -10 10 -10 6 0 10 5 10 10 0 6 -4 10 -10 10 -5
0 -10 -4 -10 -10z"/>
<path d="M10760 1081 c0 -24 -3 -28 -20 -24 -26 7 -60 -23 -60 -52 0 -23 28
-55 48 -55 7 0 12 5 12 10 0 6 -7 10 -15 10 -8 0 -19 9 -25 20 -14 26 7 62 35
58 16 -2 20 -11 21 -42 0 -22 6 -42 12 -44 9 -3 12 18 12 72 0 44 -4 76 -10
76 -5 0 -10 -13 -10 -29z"/>
<path d="M4312 1088 c-20 -20 -14 -35 23 -64 19 -14 35 -33 35 -40 0 -9 -12
-14 -35 -14 -19 0 -35 -4 -35 -10 0 -17 56 -11 74 9 21 23 14 40 -27 66 -42
27 -41 48 3 56 35 6 35 6 5 8 -17 0 -36 -4 -43 -11z"/>
<path d="M9541 1028 c1 -48 4 -63 8 -43 5 24 12 31 36 34 l30 4 -30 6 c-24 5
-30 11 -30 31 0 19 6 26 30 31 29 6 29 7 -7 8 l-38 1 1 -72z"/>
<path d="M9640 1030 c0 -40 4 -70 10 -70 6 0 10 11 10 24 0 19 6 25 26 28 34
4 49 27 40 61 -6 24 -11 27 -46 27 l-40 0 0 -70z m75 41 c9 -28 -5 -51 -31
-51 -21 0 -24 5 -24 35 0 30 3 35 24 35 15 0 27 -7 31 -19z"/>
<path d="M9830 1079 c-9 -16 -8 -25 6 -40 9 -10 25 -21 35 -24 11 -4 19 -15
19 -26 0 -15 -7 -19 -36 -19 -21 0 -33 -4 -29 -10 10 -16 51 -11 69 9 15 17
13 51 -4 51 -4 0 -19 9 -33 20 -32 26 -25 48 16 53 l32 4 -32 1 c-24 2 -35 -4
-43 -19z"/>
<path d="M10990 1030 c0 -77 8 -88 55 -76 95 24 82 146 -15 146 l-40 0 0 -70z
m94 38 c32 -45 7 -98 -46 -98 -28 0 -28 1 -28 60 0 60 0 60 29 60 20 0 35 -8
45 -22z"/>
<path d="M11174 1083 c-4 -10 -12 -31 -19 -48 -7 -16 -16 -41 -19 -55 -6 -23
-6 -23 7 -7 19 22 73 23 86 0 21 -39 17 -4 -8 60 -27 69 -37 80 -47 50z m36
-55 c0 -13 -8 -18 -26 -18 -21 0 -25 3 -19 18 4 9 10 25 12 35 5 17 6 17 19 0
7 -10 14 -26 14 -35z"/>
<path d="M11250 1093 c0 -28 42 -143 50 -138 6 4 10 15 10 25 0 10 5 22 10 25
6 3 10 15 10 26 0 36 25 15 34 -29 13 -54 32 -54 46 1 6 23 15 54 20 70 5 15
5 27 0 27 -4 0 -13 -23 -20 -50 -7 -28 -16 -52 -20 -55 -5 -3 -16 20 -25 50
-15 54 -35 74 -35 36 0 -10 -7 -36 -16 -57 l-17 -39 -18 54 c-19 55 -29 73
-29 54z"/>
<path d="M5191 1078 c0 -9 -7 -19 -13 -21 -10 -4 -10 -6 0 -6 7 -1 12 -17 12
-45 0 -30 5 -46 15 -50 8 -3 15 -1 15 4 0 6 -4 10 -10 10 -5 0 -10 18 -10 39
0 29 5 41 18 44 15 4 15 5 0 6 -9 0 -19 9 -21 19 -4 15 -5 15 -6 0z"/>
<path d="M7042 1065 c-7 -9 -8 -15 -2 -15 5 0 10 -17 10 -39 0 -39 22 -72 35
-51 3 5 1 10 -4 10 -6 0 -11 18 -11 40 0 22 5 40 11 40 6 0 4 7 -5 15 -18 18
-18 18 -34 0z"/>
<path d="M4420 1034 c-13 -34 7 -78 38 -82 12 -2 22 1 22 7 0 5 -10 11 -22 13
-13 2 -24 11 -26 21 -3 14 4 17 32 17 37 0 47 15 24 38 -22 22 -58 14 -68 -14z
m60 1 c0 -9 -9 -15 -25 -15 -16 0 -25 6 -25 15 0 9 9 15 25 15 16 0 25 -6 25
-15z"/>
<path d="M4590 1008 c0 -59 18 -64 22 -5 2 34 7 42 23 42 16 0 21 -8 23 -42 4
-54 22 -57 22 -4 0 46 -14 60 -58 59 -32 -1 -32 -2 -32 -50z"/>
<path d="M4720 1041 c-14 -28 -13 -60 4 -77 17 -16 56 -19 56 -4 0 6 -11 10
-25 10 -14 0 -25 2 -25 4 0 2 -3 11 -6 20 -5 13 2 16 35 16 27 0 41 4 41 13 0
37 -62 51 -80 18z m58 -8 c2 -9 -7 -13 -27 -13 -23 0 -29 4 -24 16 6 17 44 15
51 -3z"/>
<path d="M4837 1042 c-22 -25 -21 -48 3 -72 21 -21 50 -27 50 -10 0 6 -9 10
-20 10 -45 0 -38 76 8 83 l27 4 -26 2 c-14 0 -33 -7 -42 -17z"/>
<path d="M4932 1048 c-7 -7 -12 -27 -12 -45 0 -26 6 -36 25 -45 19 -9 28 -9
37 0 9 9 6 12 -15 12 -15 0 -27 2 -27 4 0 2 -3 11 -6 20 -5 13 2 16 35 16 44
0 46 2 31 31 -12 21 -50 25 -68 7z m58 -13 c0 -10 -10 -15 -30 -15 -22 0 -28
4 -24 15 4 8 17 15 30 15 15 0 24 -6 24 -15z"/>
<path d="M5047 1053 c-13 -13 -7 -38 13 -51 28 -17 25 -30 -7 -34 -25 -4 -26
-5 -9 -13 22 -10 50 5 54 28 2 10 -7 22 -22 28 -34 16 -33 37 2 42 l27 4 -26
2 c-14 0 -29 -2 -32 -6z"/>
<path d="M5130 1010 c0 -27 5 -50 10 -50 6 0 10 23 10 50 0 28 -4 50 -10 50
-5 0 -10 -22 -10 -50z"/>
<path d="M5288 1053 c27 -5 30 -33 3 -33 -10 0 -24 -7 -31 -15 -14 -17 -4 -55
15 -55 24 0 26 17 3 23 -18 5 -19 8 -8 21 19 24 40 19 40 -9 0 -14 5 -25 10
-25 11 0 14 59 4 84 -4 10 -17 15 -33 15 -23 -2 -24 -2 -3 -6z"/>
<path d="M5431 1008 c1 -29 3 -42 6 -28 9 56 14 69 31 73 10 3 6 5 -10 6 -27
1 -28 0 -27 -51z"/>
<path d="M5505 1036 c-14 -22 -15 -29 -3 -53 13 -27 58 -46 58 -24 0 5 -10 11
-22 13 -13 2 -24 11 -26 21 -3 14 4 17 33 17 32 0 36 3 33 23 -5 33 -52 36
-73 3z m63 -3 c2 -9 -7 -13 -27 -13 -30 0 -39 9 -24 24 11 10 46 3 51 -11z"/>
<path d="M5643 1053 c36 -6 35 -29 -3 -36 -23 -5 -30 -12 -30 -31 0 -27 21
-39 56 -30 19 5 24 13 24 39 0 53 -9 65 -44 64 -30 -2 -30 -2 -3 -6z m30 -50
c11 -10 -13 -33 -34 -33 -21 0 -22 1 -13 24 6 16 35 22 47 9z"/>
<path d="M5783 1010 c0 -30 2 -43 4 -27 2 15 2 39 0 55 -2 15 -4 2 -4 -28z"/>
<path d="M5843 1053 c15 -2 27 -6 27 -9 0 -2 -11 -22 -24 -43 -28 -43 -25 -51
16 -51 35 0 37 18 3 22 l-26 3 31 43 32 42 -44 -1 c-29 -2 -34 -3 -15 -6z"/>
<path d="M5953 1053 c32 -5 36 -30 6 -35 -12 -2 -27 -11 -33 -20 -16 -26 13
-51 48 -42 25 6 27 10 24 53 -3 45 -4 46 -38 47 -26 1 -28 1 -7 -3z m30 -49
c12 -12 -6 -34 -29 -34 -26 0 -30 10 -12 28 13 13 31 16 41 6z"/>
<path d="M6040 1008 c0 -62 5 -60 14 5 5 31 4 47 -3 47 -7 0 -11 -22 -11 -52z"/>
<path d="M6180 1041 c-15 -29 -12 -56 8 -74 20 -19 52 -23 52 -7 0 6 -11 10
-25 10 -14 0 -25 2 -25 4 0 2 -3 11 -6 20 -5 13 2 16 35 16 27 0 41 4 41 13 0
37 -62 51 -80 18z m58 -8 c2 -8 -6 -13 -22 -13 -17 0 -26 5 -26 16 0 19 41 16
48 -3z"/>
<path d="M6402 978 c0 -46 3 -68 5 -50 4 28 8 33 25 29 32 -9 58 14 58 48 0
36 -16 55 -44 55 -19 0 -18 -2 4 -13 45 -23 22 -91 -25 -73 -14 5 -16 13 -11
40 4 20 2 37 -4 41 -6 4 -9 -22 -8 -77z"/>
<path d="M6531 1000 c1 -30 4 -41 6 -25 7 58 13 74 31 78 9 3 5 4 -10 4 -27
-1 -28 -3 -27 -57z"/>
<path d="M6612 1048 c-21 -21 -15 -76 9 -89 33 -17 69 6 69 46 0 36 -15 55
-45 55 -12 0 -26 -5 -33 -12z m58 -12 c20 -26 8 -61 -23 -64 -31 -4 -43 14
-33 53 7 28 36 34 56 11z"/>
<path d="M6721 1050 c0 -8 4 -24 9 -35 5 -13 9 -14 9 -5 0 8 -4 24 -9 35 -5
13 -9 14 -9 5z"/>
<path d="M6797 1053 c-4 -3 -7 -13 -7 -22 1 -13 3 -13 11 2 11 19 8 33 -4 20z"/>
<path d="M6842 1048 c-7 -7 -12 -27 -12 -45 0 -36 29 -60 58 -47 13 6 10 8
-13 13 -17 4 -31 13 -33 24 -3 14 4 17 37 17 44 0 46 2 31 31 -12 21 -50 25
-68 7z m56 -15 c2 -9 -7 -13 -27 -13 -30 0 -39 9 -24 24 11 10 46 3 51 -11z"/>
<path d="M6950 1041 c-15 -30 -12 -56 10 -76 13 -12 25 -15 37 -9 15 7 14 8
-9 12 -52 7 -44 77 9 85 26 4 26 4 -4 6 -23 1 -35 -5 -43 -18z"/>
<path d="M7128 1049 c-25 -14 -23 -62 3 -85 18 -17 23 -17 46 -4 28 16 42 40
24 40 -6 0 -11 -7 -11 -16 0 -11 -8 -14 -26 -12 -35 4 -53 31 -38 56 15 23 52
28 60 8 3 -9 10 -16 15 -16 6 0 5 9 -1 20 -12 22 -44 26 -72 9z"/>
<path d="M7433 1034 c-15 -24 -15 -29 -2 -53 14 -26 69 -44 69 -22 0 5 -12 11
-27 13 -17 2 -29 10 -31 21 -3 14 4 17 32 17 20 0 36 4 36 9 0 46 -50 56 -77
15z m65 -1 c2 -9 -7 -13 -27 -13 -30 0 -39 9 -24 24 11 10 46 3 51 -11z"/>
<path d="M7670 1010 c0 -27 5 -50 10 -50 6 0 10 23 10 50 0 28 -4 50 -10 50
-5 0 -10 -22 -10 -50z"/>
<path d="M7720 1011 c0 -57 19 -71 22 -16 0 19 1 40 2 47 1 6 -5 13 -11 16 -9
2 -13 -11 -13 -47z"/>
<path d="M7772 1053 c18 -4 24 -20 31 -78 3 -23 4 -20 6 12 1 55 -7 73 -33 72
-16 -1 -17 -2 -4 -6z"/>
<path d="M8042 1048 c-7 -7 -12 -27 -12 -45 0 -36 29 -60 58 -47 13 6 10 8
-13 13 -17 4 -31 13 -33 24 -3 14 4 17 37 17 44 0 46 2 31 31 -12 21 -50 25
-68 7z m56 -15 c2 -9 -7 -13 -27 -13 -30 0 -39 9 -24 24 11 10 46 3 51 -11z"/>
<path d="M8210 1041 c-6 -12 -7 -21 -1 -21 5 0 11 7 15 15 8 21 44 19 50 -2 6
-24 1 -97 -9 -112 -4 -7 -18 -11 -31 -8 -13 2 -24 0 -24 -4 0 -5 13 -9 30 -9
39 0 62 43 58 108 -3 46 -4 47 -40 50 -29 2 -39 -1 -48 -17z"/>
<path d="M8330 1010 c0 -27 5 -50 10 -50 6 0 10 18 10 40 0 33 4 42 23 50 20
8 19 9 -10 9 -33 1 -33 1 -33 -49z"/>
<path d="M8438 1053 c27 -5 30 -33 3 -33 -10 0 -24 -7 -31 -15 -14 -17 -4 -55
15 -55 24 0 26 17 3 23 -18 5 -19 8 -8 21 19 24 40 19 40 -9 0 -14 5 -25 10
-25 11 0 14 59 4 84 -4 10 -17 15 -33 15 -23 -2 -24 -2 -3 -6z"/>
<path d="M8652 1048 c-18 -18 -14 -63 8 -83 17 -15 24 -16 46 -7 22 11 25 17
22 55 -3 39 -5 42 -33 45 -17 2 -36 -3 -43 -10z m63 -38 c0 -32 -2 -35 -30
-35 -24 0 -31 5 -33 23 -5 30 16 54 42 50 17 -2 21 -10 21 -38z"/>
<path d="M8830 977 c0 -50 4 -76 10 -72 6 3 10 17 10 30 0 20 5 23 27 22 35
-3 58 38 43 77 -8 23 -15 26 -50 24 l-40 -3 0 -78z m75 33 c0 -31 -3 -35 -25
-35 -19 0 -26 6 -28 23 -5 36 5 54 30 50 19 -2 23 -9 23 -38z"/>
<path d="M8989 1052 c36 -11 36 -28 1 -35 -17 -4 -33 -13 -36 -22 -7 -18 12
-45 32 -45 22 0 16 17 -8 24 -21 5 -22 7 -6 22 22 22 52 11 43 -16 -4 -12 -2
-20 5 -20 7 0 10 17 8 48 -3 44 -5 47 -33 49 -27 2 -28 1 -6 -5z"/>
<path d="M9071 1010 l2 -55 7 45 c4 25 4 49 -1 55 -5 5 -8 -13 -8 -45z"/>
<path d="M9169 1051 c36 -10 36 -27 1 -34 -24 -5 -30 -12 -30 -31 0 -26 41
-49 48 -28 2 6 10 8 18 5 11 -4 14 4 14 34 0 46 -14 63 -49 62 l-26 -1 24 -7z
m29 -58 c-2 -10 -13 -19 -26 -21 -24 -4 -25 -2 -16 22 9 23 46 21 42 -1z"/>
<path d="M9322 1048 c-16 -16 -15 -66 2 -84 17 -16 56 -19 56 -4 0 6 -11 10
-25 10 -14 0 -25 2 -25 4 0 2 -3 11 -6 20 -5 13 2 16 35 16 38 0 40 1 32 23
-9 25 -50 34 -69 15z m56 -15 c2 -9 -7 -13 -27 -13 -23 0 -29 4 -24 16 6 17
44 15 51 -3z"/>
<path d="M9942 1020 c-2 -46 10 -70 35 -70 20 0 15 17 -6 23 -15 4 -21 16 -24
48 l-4 44 -1 -45z"/>
<path d="M10010 1026 c0 -19 -3 -41 -6 -50 -4 -11 -1 -16 10 -16 13 0 16 11
16 50 0 28 -4 50 -10 50 -5 0 -10 -15 -10 -34z"/>
<path d="M10060 977 c0 -50 4 -76 10 -72 6 3 10 17 10 30 0 20 5 23 27 22 35
-3 58 38 43 77 -8 23 -15 26 -50 24 l-40 -3 0 -78z m75 33 c0 -31 -3 -35 -25
-35 -19 0 -26 6 -28 23 -5 36 5 54 30 50 19 -2 23 -9 23 -38z"/>
<path d="M10195 1040 c-33 -36 8 -104 51 -85 17 8 17 9 -6 13 -58 9 -61 42 -4
42 19 0 34 4 34 9 0 43 -44 55 -75 21z m59 -5 c4 -11 -2 -15 -24 -15 -29 0
-38 9 -23 23 12 12 41 7 47 -8z"/>
<path d="M10301 1006 l1 -51 8 39 c4 22 15 45 24 51 14 11 13 13 -9 13 -24 0
-25 -3 -24 -52z"/>
<path d="M10370 1010 c0 -27 5 -50 10 -50 6 0 10 23 10 50 0 28 -4 50 -10 50
-5 0 -10 -22 -10 -50z"/>
<path d="M10437 1042 c-10 -10 -17 -28 -17 -39 0 -23 29 -53 52 -53 37 0 64
70 36 98 -18 18 -53 15 -71 -6z m63 -7 c20 -24 4 -65 -25 -65 -32 0 -50 32
-33 60 15 24 41 26 58 5z"/>
<path d="M10561 1000 c1 -30 4 -41 6 -25 7 58 13 74 31 78 9 3 5 4 -10 4 -27
-1 -28 -3 -27 -57z"/>
<path d="M10820 1035 c-24 -44 15 -98 58 -79 14 6 11 8 -13 13 -17 4 -31 13
-33 24 -3 14 4 17 32 17 37 0 47 15 24 38 -20 20 -54 14 -68 -13z m60 0 c0 -9
-9 -15 -25 -15 -24 0 -32 10 -18 23 12 13 43 7 43 -8z"/>
<path d="M8200 992 c0 -22 29 -45 48 -36 15 6 15 8 -3 12 -11 2 -25 12 -32 21
-9 11 -12 12 -13 3z"/>
<path d="M8510 994 c0 -14 33 -44 48 -44 7 0 12 5 12 10 0 6 -7 10 -16 10 -9
0 -23 8 -30 18 -7 9 -14 12 -14 6z"/>
<path d="M6751 963 c-1 -17 -8 -39 -17 -47 -8 -9 -11 -16 -5 -16 6 0 18 11 27
25 13 20 14 31 6 48 -10 21 -11 20 -11 -10z"/>
<path d="M11460 970 c0 -5 5 -10 10 -10 6 0 10 5 10 10 0 6 -4 10 -10 10 -5 0
-10 -4 -10 -10z"/>
</g>
</svg>
