<?xml version="1.0" encoding="UTF-8"?>
<svg xmlns="http://www.w3.org/2000/svg" xmlns:xlink="http://www.w3.org/1999/xlink" width="64px" height="64px" viewBox="0 0 64 64" version="1.1">
<g id="surface1">
<path style=" stroke:none;fill-rule:nonzero;fill:rgb(42.745098%,70.19608%,24.705882%);fill-opacity:1;" d="M 62.789062 28.15625 L 50.332031 3.84375 C 49.253906 1.734375 46.605469 0 44.433594 0 L 19.550781 0 C 17.394531 0 14.730469 1.734375 13.652344 3.84375 L 1.210938 28.15625 C 0.132812 30.265625 0.132812 33.71875 1.210938 35.832031 L 13.652344 60.15625 C 14.730469 62.265625 17.382812 64 19.550781 64 L 44.449219 64 C 46.605469 64 49.253906 62.265625 50.347656 60.15625 L 62.789062 35.832031 C 63.867188 33.71875 63.867188 30.265625 62.789062 28.15625 Z M 29.304688 13.449219 C 29.304688 11.855469 30.457031 10.554688 31.871094 10.554688 C 33.28125 10.554688 34.433594 11.855469 34.433594 13.449219 L 34.433594 30.742188 C 34.433594 32.335938 33.28125 33.636719 31.871094 33.636719 C 30.457031 33.636719 29.304688 32.335938 29.304688 30.742188 Z M 31.871094 50.371094 C 22.277344 50.371094 14.472656 41.5625 14.472656 30.742188 C 14.484375 24.535156 17.085938 18.707031 21.496094 14.988281 C 22.515625 14.132812 23.9375 14.371094 24.695312 15.519531 C 25.449219 16.664062 25.242188 18.273438 24.222656 19.125 C 18.535156 23.890625 17.347656 32.964844 21.574219 39.382812 C 25.796875 45.796875 33.839844 47.140625 39.527344 42.375 C 42.785156 39.648438 44.707031 35.328125 44.707031 30.742188 C 44.695312 26.140625 42.761719 21.824219 39.476562 19.082031 C 38.460938 18.242188 38.25 16.621094 38.996094 15.476562 C 39.738281 14.328125 41.175781 14.089844 42.191406 14.929688 C 46.640625 18.636719 49.253906 24.507812 49.269531 30.742188 C 49.269531 41.578125 41.460938 50.371094 31.871094 50.371094 Z M 31.871094 50.371094 "/>
</g>
</svg>
